name mfd
datacolumns  50
datarows  12
range   1.93000000 1.98500000
cursor 1.0 1.0 0.0
keys m_key
wrap
enforce_loops no
enforce_constraints no
calc_derivatives -1.000000
event_color 0.000000 0.000000 0.000000
endheader

            time      gaitcycle_l        pelvis_tz        pelvis_tx        pelvis_ty      pelvis_tilt      pelvis_list       pelvis_rot       lumbar_ext   lumbar_latbend       lumbar_rot         neck_ext     neck_latbend         neck_rot        arm_add_r       arm_flex_r        arm_rot_r     elbow_flex_r        pro_sup_r     wrist_flex_r        arm_add_l       arm_flex_l        arm_rot_l     elbow_flex_l        pro_sup_l     wrist_flex_l       hip_flex_r        hip_add_r        hip_rot_r        knee_tz_r        knee_tx_r        knee_ty_r      knee_flex_r       knee_add_r       knee_rot_r          pf_tz_r          pf_tx_r          pf_ty_r        pf_flex_r         pf_rot_r        pf_tilt_r       hip_flex_l        hip_add_l        hip_rot_l      knee_flex_l     ankle_flex_l     subt_angle_l      mtp_angle_l     ankle_flex_r     subt_angle_r 
      1.93000000      92.20779221      -0.19603109       0.92793758       0.86815640      -7.82996407       4.88228185      -5.82420487      -3.20834155      -8.23654574       4.89737339       0.00000000       0.00000000       0.00000000     -12.21956083      11.46588005     -24.73262072      27.82479171      70.00000000       0.00000000     -11.95231403      -8.42222529     -53.86061792       8.85178465      70.00000000       0.00000000      -3.61854280      -6.36075235      -6.08039349      -0.00222548       0.00258806       0.00032262      35.57473415       1.96501661      -2.97190302       0.00478177       0.03939461      -0.01779929      26.61600118       1.08505059      -1.09862548      31.42435960      -4.89786057      -0.55049699      23.36121465       2.32619276       0.00100000       0.00000000      -3.64662957      -0.00100000 
      1.93500000      95.45454545      -0.19661270       0.93470014       0.86914790      -7.71098142       4.96122130      -5.71344940      -3.35654853      -8.30508306       4.55516491       0.00000000       0.00000000       0.00000000     -12.12719937      11.42370165     -25.05451611      27.37183330      70.00000000       0.00000000     -11.83944878      -7.81222087     -53.71708676       9.03024936      70.00000000       0.00000000      -2.73875672      -6.85776051      -6.56221358      -0.00225320       0.00254241       0.00020960      37.56198962       2.07420677      -3.14736043       0.00487627       0.03838544      -0.01880240      28.14819527       1.16278019      -0.98978155      30.94968694      -5.10562084      -0.46582564      23.62493723       3.03467622       0.00100000       0.00000000      -4.89967278      -0.00100000 
      1.94000000      98.70129870      -0.19715279       0.94137064       0.87013972      -7.59436867       5.02484249      -5.62092506      -3.51238848      -8.35271065       4.22308364       0.00000000       0.00000000       0.00000000     -12.04672021      11.39275655     -25.37851380      26.92896024      70.00000000       0.00000000     -11.72615939      -7.18475122     -53.56900293       9.22987484      70.00000000       0.00000000      -1.82751107      -7.33729361      -6.98558231      -0.00227285       0.00249754       0.00008254      39.53505416       2.18190329      -3.32840463       0.00497051       0.03735386      -0.01974650      29.70975374       1.24223804      -0.89055294      30.43796411      -5.28441088      -0.34471306      23.80523843       3.72719080       0.00100000       0.00000000      -6.00846862      -0.00100000 
      1.94500000       0.00000000      -0.19764314       0.94795006       0.87112560      -7.48260671       5.07304092      -5.55003249      -3.67189515      -8.37979770       3.90591475       0.00000000       0.00000000       0.00000000     -11.97804099      11.37196317     -25.70189757      26.49625949      70.00000000       0.00000000     -11.61409368      -6.54152169     -53.41017309       9.45049790      70.00000000       0.00000000      -0.88517421      -7.79339626      -7.34503660      -0.00228462       0.00245470      -0.00005770      41.48272031       2.28749093      -3.51159834       0.00506269       0.03630920      -0.02062599      31.28869019       1.32219785      -0.80193900      29.89386779      -5.43213164      -0.18704431      23.90569495       4.39777178       0.00100000       0.00000000      -6.95133446      -0.00100000 
      1.95000000       0.00000000      -0.19807675       0.95444041       0.87210090      -7.37831964       5.10583102      -5.50346222      -3.83094273      -8.38690090       3.60786264       0.00000000       0.00000000       0.00000000     -11.92093425      11.36000742     -26.02172635      26.07363988      70.00000000       0.00000000     -11.50485413      -5.88430541     -53.23380199       9.69187074      70.00000000       0.00000000       0.08830974      -8.22029571      -7.63733644      -0.00228897       0.00241483      -0.00020976      43.39414960       2.39037899      -3.69354378       0.00515120       0.03526119      -0.02143721      32.87238792       1.40143482      -0.72454951      29.32278556      -5.54730422       0.00707687      23.93104988       5.04193865       0.00100000       0.00000000      -7.71099188      -0.00100000 
      1.95500000       0.00000000      -0.19844794       0.96084464       0.87306262      -7.28416952       5.12337307      -5.48310540      -3.98541041      -8.37477019       3.33239583       0.00000000       0.00000000       0.00000000     -11.87501033      11.35540135     -26.33494472      25.66082914      70.00000000       0.00000000     -11.39996190      -5.21496203     -53.03269041       9.95374924      70.00000000       0.00000000       1.09321058      -8.61255326      -7.86122957      -0.00228652       0.00237867      -0.00037196      45.25893329       2.49001332      -3.87104940       0.00523464       0.03421959      -0.02217815      34.44797496       1.47878857      -0.65865789      28.73054134      -5.62914252       0.23712893      23.88692728       5.65650602       0.00100000       0.00000000      -8.27530376      -0.00100000 
      1.96000000       0.00000000      -0.19875241       0.96716653       0.87400937      -7.20275150       5.12600884      -5.49001721      -4.13133976      -8.34436103       3.08214013       0.00000000       0.00000000       0.00000000     -11.83970934      11.35655024     -26.63847823      25.25738575      70.00000000       0.00000000     -11.30083491      -4.53545341     -52.79940249      10.23598357      70.00000000       0.00000000       2.12978598      -8.96520161      -8.01718073      -0.00227809       0.00234667      -0.00054225      47.06707508       2.58587975      -4.04131485       0.00531188       0.03319395      -0.02284833      36.00249754       1.55321878      -0.60419195      28.12313584      -5.67759471       0.50201441      23.77956434       6.23936824       0.00100000       0.00000000      -8.63781293      -0.00100000 
      1.96500000       0.00000000      -0.19898722       0.97341058       0.87494133      -7.13647843       5.11427147      -5.52440099      -4.26509132      -8.29681802       2.85882019       0.00000000       0.00000000       0.00000000     -11.81430435      11.36177888     -26.92935814      24.86279100      70.00000000       0.00000000     -11.20878943      -3.84783778     -52.52633462      10.53854070      70.00000000       0.00000000       3.19805388      -9.27385904      -8.10714962      -0.00226461       0.00231891      -0.00071825      48.80899099       2.67749990      -4.20207455       0.00538216       0.03219349      -0.02344900      37.52292853       1.62383729      -0.56065258      27.50647952      -5.69334456       0.79990931      23.61555634       6.78942193       0.00100000       0.00000000      -8.79792371      -0.00100000 
      1.97000000       0.00000000      -0.19915087       0.97958195       0.87586011      -7.08746334       5.08886690      -5.58561016      -4.38348329      -8.23342069       2.66315229       0.00000000       0.00000000       0.00000000     -11.79791629      11.36946314     -27.20480015      24.47631739      70.00000000       0.00000000     -11.12499344      -3.15434733     -52.20592637      10.86172461      70.00000000       0.00000000       4.29753691      -9.53481720      -8.13443599      -0.00224707       0.00229533      -0.00089740      50.47554612       2.76444051      -4.35152418       0.00544500       0.03122688      -0.02398244      38.99666450       1.68991750      -0.52731414      26.88612766      -5.67777072       1.12814748      23.40159740       7.30611475       0.00100000       0.00000000      -8.76082268      -0.00100000 
      1.97500000       0.00000000      -0.19924324       0.98568641       0.87676865      -7.05740680       5.05063200      -5.67217472      -4.48392066      -8.15551214       2.49488043       0.00000000       0.00000000       0.00000000     -11.78953531      11.37800260     -27.46238774      24.09722058      70.00000000       0.00000000     -11.05049568      -2.45732304     -51.83071801      11.20607467      70.00000000       0.00000000       5.42700242      -9.74508504      -8.10350166      -0.00222647       0.00227569      -0.00107709      52.05798535       2.84630570      -4.48832237       0.00550017       0.03030216      -0.02445161      40.41196281       1.75092150      -0.50330829      26.26703103      -5.63286542       1.48317274      23.14423774       7.78956279       0.00100000       0.00000000      -8.53714162      -0.00100000 
      1.98000000       0.00000000      -0.19926558       0.99173030       0.87767096      -7.04749659       5.00049426      -5.78186132      -4.56449188      -8.06443336       2.35277217       0.00000000       0.00000000       0.00000000     -11.78805196      11.38590889     -27.70016194      23.72469578      70.00000000       0.00000000     -10.98620737      -1.75923097     -51.39365853      11.57245471      70.00000000       0.00000000       6.58429502      -9.90247212      -8.01984800      -0.00220377       0.00225961      -0.00125465      53.54800306       2.92273751      -4.61160252       0.00554765       0.02942661      -0.02486008      41.75818511       1.80651055      -0.48765763      25.65331595      -5.56113654       1.86058324      22.84964590       8.24026487       0.00100000       0.00000000      -8.14213135      -0.00100000 
      1.98500000       0.00000000      -0.19922042       0.99772041       0.87857196      -7.05832506       4.93944514      -5.91178419      -4.62404311      -7.96148416       2.23471558       0.00000000       0.00000000       0.00000000     -11.79229418      11.39184814     -27.91674060      23.35792264      70.00000000       0.00000000     -10.93291406      -1.06260829     -50.88838245      11.96202657      70.00000000       0.00000000       7.76621913     -10.00566724      -7.88982423      -0.00217988       0.00224667      -0.00142744      54.93780122       2.99342475      -4.72095148       0.00558767       0.02860679      -0.02521190      43.02527412       1.85649615      -0.47925832      25.04811206      -5.46549910       2.25529576      22.52340125       8.65902579       0.00100000       0.00000000      -7.59500183      -0.00100000 
